<svg xmlns="http://www.w3.org/2000/svg" xml:space="preserve" style="enable-background:new 0 0 1920 1080" viewBox="0 0 1920 1080"><path d="M1746.7 389.4V503c0 12.7-.4 31.5-11.9 44.2-13 14.6-36.4 16.2-50.1 16.2-14.7 0-36.4-1.9-49.9-16.2-11.9-13-12.3-29.9-12.3-43.9v-84h-.3v-43.1c0-23.2-17.2-33.1-40.7-33.1-18 0-33.5 3.9-44.4 32.5L1471.7 544c-2 5.6-4.7 9.4-7 9.4s-4.7-3.9-7-9.4l-65.2-168.4c-7-17.8-15.2-32.5-44.4-32.5-7.2 0-40.7.3-40.7 33.1v222.2h47.6l-1.3-196.6c0-1 0-7.6 4-7.6 2.3 0 5.1 5.3 6.1 8.4l64.7 168.4c6.1 15.9 11.9 30.2 36.2 30.2 22.3 0 28.8-11.3 35.9-30.2l64.7-168.4c1-2.9 3.7-8.4 6.1-8.4 1.4 0 4.3.8 4.3 7.6l-.3 17.3h-.3l-.8 90.6c0 21.3 2.9 45.2 22 64.7 25.2 25.9 64.7 26.9 87.7 26.9s62.4-1 87.7-26.9c19.2-19.4 22-43.4 22-64.7v-164c.7-.1-47-8.1-47 43.7m-733 79.7c0-30.2-1-66.4-25.6-93.4-15.2-16.6-39.1-30.1-74-30.1h-91.7c-1.3-.3-2.4-.3-3.7-.3s-3.4 0-5.9.3h-6.3v.8c-12.3 2.3-28.6 9.2-28.6 32.1v188c10-26.6 47.4-20 47.4-20v-163H893c17 0 39.6 3.3 54.2 18.3 15.9 16.6 17.6 41.9 17.6 63.5 0 42.9-6.6 61.7-12.7 71.4-10.9 17.8-28.2 23.5-54.5 23.5h-74.4c-49.9 0-45.4 37.8-45.4 37.8h143.1c39.6 0 60.5-17.6 70.7-31.1 20.2-27.1 22.1-70.5 22.1-97.8m182.4 31.5L1155 397.7c-1.4-3.7-4-10.4-7.2-10.4-3.3 0-5.7 7-7.2 10.4L1099 500.6h97.1zm-7-129.3 95.3 226.9h-50.1l-25.9-63.8h-121.7l-25.8 63.8h-50.1l95.3-226.9c9-21.3 18.9-28.5 41.5-28.5 21.6.1 32.5 7.2 41.5 28.5M114.7 526.1c8.7 18 40.9 39.2 83.8 58.2-1-3-2-5.9-3-9.2-36.5-15.4-65.9-33-80.8-49m587.4-20.7c0 142.7-115.5 258.4-258.2 258.4-85.4 0-160.9-41.8-207.9-105.6C282.2 728.4 361.5 775 451.9 775c142.7 0 258.4-115.6 258.4-258.2 0-58.1-19.2-111.6-51.5-154.7 27.4 40.9 43.3 90.4 43.3 143.3M437.4 730.5c124.2 0 224.8-100.8 224.8-224.8 0-124.2-100.6-224.8-224.8-224.8-96.5 0-178.7 60.9-210.5 146.1 56.1-20.6 122.6-35.8 177.3-35.8 118.8 0 198.6 51.4 198.6 114.5s-80.1 114.5-198.6 114.5c-54.5 0-121.2-15.2-177.3-35.8 31.9 85.3 113.9 146.1 210.5 146.1M264.7 474.8c-46.8 0-106.2 17.8-106.2 30.9 0 13 59.3 30.9 106.2 30.9 47.1 0 81.1-13.7 81.1-30.9.3-17-34.1-30.9-81.1-30.9M125 505.6c0-37.6 134.2-89.3 240.6-89.3s184 40.1 184 89.3c0 49.2-77.7 89.3-184 89.3S125 543.5 125 505.6M804 679v4.4h-19.6v-34.2h18.9v4.4h-13.7v9.6h12.9v4.2h-12.9v11h14.6v.5h-.2zm30.5-29.5h-.4v14.3c0 4.3 0 7.7.4 11.4-1.4-2.9-3-5.7-4.9-8.7l-10.9-17h-5.6v34.2H817.9V669c0-4.7 0-8.2-.3-11.6 1.6 3 3.4 6.1 5.3 9.4l10.6 17.2h5.1v-34.2H834v-.3h.5zm11.6 0v4.4h10.2v29.7h5.3V654h10.2v-4.5h-25.7zm55.8 34.2h-5.6l-.3-.3c-.6-1-1.4-3.9-2.3-8.2-1-4.6-2.4-5.9-6.1-6.1h-3.4v14.3H879V649.7l.4-.3c2.3-.4 5.3-.6 8.4-.6 4.7 0 7.7.8 9.9 2.9 1.9 1.6 2.9 4 2.9 6.7 0 4.3-2.4 7.2-5.6 8.6 2.3 1.3 3.4 3.4 4.3 6.7 1 4.7 1.9 7.7 2.4 9l.2 1zM888 653.4c-1.6 0-3 .3-3.7.3V665h3.9c4.6 0 7-2.3 7-5.9-.3-3.8-2.9-5.4-7.2-5.7m27.2 25.6v-11h12.9v-4.2h-12.9v-9.6h13.7v-4.6h-19v34.2h19.6v-4.4h-14.3v-.4zm44.9-19.6c0 3-1 5.7-2.7 7.3-2.4 2.4-6.1 3.9-10.4 3.9-1 0-2 0-3-.3v13.3h-5.3V650h.4c2-.4 4.9-.6 8.4-.6 4.3 0 7.6 1 9.6 2.9 1.9 1.5 3 4 3 7.1m-12.7-5.7c-1.6 0-2.9.3-3.4.3v12c.8.3 1.9.3 3 .3 5.1 0 7.7-2.3 7.7-6.6.1-4.3-2.7-6-7.3-6m44.8 30h-5.6l-.3-.3c-.6-1-1.3-3.9-2.3-8.2-1-4.6-2.4-5.9-6.1-6.1h-3.4v14.3h-5.3V649.7l.4-.3c2.3-.4 5.3-.6 8.4-.6 4.7 0 7.7.8 10 2.9 1.9 1.6 2.9 4 2.9 6.7 0 4.3-2.4 7.2-5.7 8.6 2.3 1.3 3.4 3.4 4.3 6.6 1 4.7 1.9 7.7 2.4 9l.3 1.1zm-13.9-30.3c-1.6 0-3 .3-3.7.3V665h3.9c4.6 0 7-2.3 7-5.9 0-3.8-2.6-5.4-7.2-5.7m27.5 25.6v-11h12.9v-4.2h-12.9v-9.6h13.7v-4.6h-19v34.2h19.6v-4.4h-14.3v-.4zm44.6-29.5h-.4v14.3c0 4.3 0 7.7.3 11.4-1.4-2.9-3-5.7-4.9-8.7l-10.9-17h-5.6v34.2H1033.7V669c0-4.7 0-8.2-.3-11.6 1.6 3 3.4 6.1 5.3 9.4l10.6 17.2h5.1v-34.2h-4.3v-.3h.3zm20.9 29.5v-11h12.9v-4.2h-12.9v-9.6h13.7v-4.6h-19v34.2h19.6v-4.4h-14.3v-.4zm43.5-29.5v20.2c0 7.2-2.9 10-7.6 10-4 0-7.2-2.9-7.3-10v-20.2H1094.8v20c0 10.4 5.3 14.7 12.5 14.7 7.3 0 13-4.6 13-14.9v-19.7h-5.5zm39.3 34.2h-5.6l-.3-.3c-.6-1-1.4-3.9-2.3-8.2-1-4.6-2.4-5.9-6.1-6.1h-3.4v14.3h-5.3V649.7l.4-.3c2.3-.4 5.3-.6 8.4-.6 4.7 0 7.7.8 10 2.9 1.9 1.6 2.9 4 2.9 6.7 0 4.3-2.4 7.2-5.7 8.6 2.3 1.3 3.4 3.4 4.3 6.7 1 4.7 1.9 7.7 2.4 9l.3 1zm-13.8-30.3c-1.6 0-3 .3-3.7.3V665h3.9c4.6 0 7-2.3 7-5.7-.3-4-2.9-5.6-7.2-5.9m32.5 10.5c-4.6-1.9-6.3-3-6.3-5.9 0-2 1.4-4.6 5.7-4.6 2.9 0 5.1 1 6.1 1.6l.6.3 1.4-4.6-.4-.3c-1.6-.8-4-1.6-7.6-1.6-6.7 0-11.3 4-11.3 9.6 0 4.9 3.7 8 9.2 9.9 4.6 1.6 5.9 3.3 5.9 6.1 0 3-2.3 5.1-6.6 5.1-2.9 0-5.6-1-7.3-2l-.6-.4-.3.6-1.3 3.9.3.3c1.9 1.3 5.6 2.3 8.7 2.3 8 0 12-4.7 12-10 .5-5.2-2.5-8.1-8.2-10.3m38.6-14.4v13.9h-15.2v-13.9H1191.1v34.2h5.3v-15.6h15.2v15.6h5.3v-34.2h-5.5zm21 0h-4.7v34.2h5.3v-34.2h-.6zm32.9 9.9c0 3-1 5.7-2.7 7.3-2.4 2.4-6.1 3.9-10.4 3.9-1 0-2 0-3-.3v13.3h-5.3V650h.4c2-.4 4.9-.6 8.4-.6 4.3 0 7.6 1 9.6 2.9 1.8 1.5 3 4 3 7.1m-12.7-5.7c-1.6 0-2.9.3-3.4.3v12c.8.3 1.9.3 3 .3 5.1 0 7.7-2.3 7.7-6.6.1-4.3-2.6-6-7.3-6m65.1 12c0 5.6-1.6 10-4.9 13.3-3.3 3.3-8.4 4.9-14.9 4.9-3 0-5.7-.3-7.7-.4h-.4V650h.4c2.7-.4 5.7-.6 9.2-.6 6.1 0 10.9 1.4 13.7 4.3 2.9 2.6 4.6 6.7 4.6 12m-5.4.2c0-7.7-4-12.3-12.9-12.3-2 0-3.4.3-4.6.4v25.3c1 .3 2.4.3 3.9.3 9-.3 13.4-4.9 13.6-13.7m19.9 13.1v-11h12.9v-4.2h-12.9v-9.6h13.7v-4.6h-19v34.2h19.6v-4.4h-14.3v-.4zm43.3-29.5-5.7 16.7c-1.3 3.7-2.4 7.3-3.4 10.6-.8-3.4-1.9-7-3-10.9l-5.3-16.7h-5.7l11.3 34.2h5.5l12.3-34.2h-5.7v.3h-.3zm17.8 29.5v-11h12.9v-4.2h-12.9v-9.6h13.7v-4.6h-18.9v34.2h19.6v-4.4h-14.6v-.4h.2zm28.6-29.5h-5.3V683.7h19.4v-4.4h-14.3v-29.7h.2zm50.1 16.6c0 11.6-7.2 18-15.9 18-9 0-15.3-7.2-15.6-17.3 0-10.9 6.7-18 15.9-18 9.4.2 15.6 7.3 15.6 17.3m-15.8-12.7c-6.7 0-10.2 6.1-10.2 13.3 0 7 3.7 12.9 10 12.9 6.6 0 10.2-5.9 10.2-13.3.3-6.3-3.2-12.9-10-12.9m43.1-1.4c1.9 1.6 3 4.3 3 7.3s-1 5.7-2.7 7.3c-2.4 2.4-6.1 3.9-10.4 3.9-1 0-2 0-2.9-.3v13.3h-5.3V650h.4c2-.4 4.9-.6 8.4-.6 4.2-.3 7.5.7 9.5 2.6m-9.6 1.7c-1.6 0-2.9.3-3.4.3v12c.8.3 1.9.3 3 .3 4.9 0 7.7-2.3 7.7-6.6.2-4.3-2.5-6-7.3-6m47.1-4.2-6.1 16.4c-1.3 3.4-2.3 6.7-3 9.6-.8-3-1.9-6.1-2.9-9.6l-5.7-16.3h-6.3l-2.4 34.2h5.1l1-14.7c.3-3.9.4-8 .6-11.6.8 3 1.9 6.3 3 10l5.6 16.2H1529.8l5.9-16.3c1.3-3.4 2.4-6.7 3.4-10 0 3.7.3 8 .4 11.6h.4-.4l.8 15.2h5.1l-2-34.2h-6.6v-.5zm23.7 18.6h12.9v-4.2h-12.9v-9.6h13.7v-4.4h-19V684h19.6V679.4h-14.3v-11.3zm44.4-18.6v14.3c0 4.3 0 7.7.4 11.4-1.4-2.9-3-5.7-4.9-8.7l-10.9-17h-5.3v34.2h5V669c0-4.7 0-8.2-.3-11.6 1.6 3 3.4 6.1 5.3 9.4l10.6 17.2h5.1v-34.2H1604.5v-.3h.4zm12.2 0v4.4h10v29.7h5.3V654h10.2v-4.5h-25.5zm47.9.5v33.7h5.3v-15.2h12.7V664h-12.7v-10h13.7v-4.5h-18.9v.4h-.1v.1zm48.4 19.6c0 7.2-2.9 10-7.6 10.2-4 0-7.2-2.9-7.3-10.2v-20.2H1693.4v20c0 10.4 5.3 14.7 12.5 14.7 7.3 0 13-4.6 13-14.9v-19.9h-5.3v20.2h-.3v.1zm37.2-20.1v14.3c0 4.3 0 7.7.3 11.4-1.4-2.9-3-5.7-4.9-8.7l-10.9-17h-5.6v34.2H1734.3V669c0-4.7 0-8.2-.3-11.6 1.6 3 3.4 6.1 5.3 9.4l10.6 17.2h5.6v-34.2H1750.3v-.3h.3zm44.4 16.2c0 5.6-1.6 10-4.9 13.3-3.3 3.3-8.6 4.9-14.9 4.9-3 0-5.7-.3-8-.4h-.4V650h.4c2.7-.4 5.7-.6 9.2-.6 6.1 0 10.9 1.4 13.7 4.3 3 2.6 4.9 6.7 4.9 12m-5.5 0c0-7.6-4-12-12.9-12.3-1.9 0-3.4.3-4.6.4v25.3c1 .3 2.4.3 3.9.3 8.9-.1 13.6-4.7 13.6-13.7z"/></svg>