<svg xmlns="http://www.w3.org/2000/svg" xml:space="preserve" style="enable-background:new 0 0 1920 1080" viewBox="0 0 1920 1080"><path d="M887.2 514.4c83.3 8 138.3 36.9 187.3 69.3-39.1 11.3-79.9 5.6-118.6-13.4 25.3 3.8 45.6 6.5 40.1.1-25.2-16.5-62.2-34.9-99.1-45.5l-9.7-10.5zm-33.4-63.5c133.3 3.6 227.3 43.9 305.7 97.7-13.5 14.3-45.6 31.3-66.3 33.3-7.4-4.9-25.3-29.9-25.3-29.9l7.8-4.5c-17.1-28.8-185.4-97.1-217.2-85.8-1.9-2.1-3.9-5.4-4.7-10.8zm-9.1-63.2c207.4 1.7 292.8 47.9 371.5 97-6.9 23.4-22 41.9-45.4 56.1 0 .1-40.2-37.7-40.2-37.8 0 .1 1.7-6 1.7-6.1-36.1-45.1-220.7-109.5-287.9-98.3.3-3.8.3-7.6.3-10.9zm10.5-59.8c170.6-15.9 284.6 21.1 383.1 73.2-.1 24.3-4.9 47.8-16.6 70.3 1.9-2.1-46.6-40.5-49-37.8-2.5 2.8 2.8-9.6 2.8-9.7-56-46.3-254.5-100.4-322.8-86 .8-3.3 2-6.9 2.5-10zm34.1-62.3c138.7-27.5 242.7.9 334.9 43.7 10.7 26.8 12.3 51.9 13.9 77.1.7-2.7-54-39.3-55.2-35.2 0 .1 1.7-7.8 1.7-8-60.1-41.7-213.4-79.7-303.1-68.3 3.2-2.8 5.3-6.7 7.8-9.3zm66.4-53.4c111.6-42.5 194.1-9 257.1 76.7-63.3-40.2-138.9-82.8-257.1-76.7zM896.9 525c-56.4.3-113.2.7-170 1.3 75.1 77 151 76.2 226.9 44.1-22.3-12.4-41.3-27.6-56.9-45.4zm-211-62.5h171.4c6.5 16.9 18.7 43.4 29.7 52H718.2c-.8 9.3-32.9-42.9-32.3-52zm157.5-63.4H673.1c-1.6 22 1.7 39.5 9.8 52.4-.1.1 170.2-1.7 170.2-1.7-5.7-15.3-8.8-32.4-9.7-50.7zm9-59.1-172.1.1c-5 15.7-7.7 31.4-7.8 46.8-.1.1 171.8 0 171.8 0 0-16.5 2.2-33.1 8.1-46.9zm-142.1-64.2c-12.6 17.5-22.7 34.6-26.3 52.3h171.7c1.3-4.8 21.4-52.4 26.4-52.3H710.3zm244.7-63c-83.1-34.9-162.8-23.1-237.6 52.4l172.4.5c14.3-19.1 38.1-38.3 65.2-52.9z" style="fill-rule:evenodd;clip-rule:evenodd"/><path d="M125.3 734.1h30.3v63.6c6.8-.7 11.3-2.4 13.7-5.2 2.4-2.8 6.1-10.5 11-23.2 6.2-16.2 12.5-26.3 18.8-30.1 6.2-4 16.3-6 30.1-6 .7 0 2.1 0 4.4-.1v22.3l-4.2-.1c-6.2 0-10.7.8-13.5 2.3-2.8 1.6-5.2 3.8-6.9 7-1.7 3.2-4.4 9.6-7.8 19.2-1.9 5.2-3.8 9.4-6 13-2.1 3.4-6 6.8-11.3 9.8 6.8 1.9 12.2 5.7 16.6 11.5 4.4 5.7 9.2 13.9 14.3 24.4l20.3 40.9h-35.4l-17.9-38.5c-.3-.5-.9-1.6-1.7-3.2-.4-.5-1.6-2.9-3.7-7-3.8-7.3-6.9-11.9-9.4-13.8-2.5-1.9-6.2-2.8-11.3-2.8v65.3h-30.3l-.1-149.3zM331.4 824.2 310.7 769l-20.2 55.2h40.9zm55.3 59.2h-32.5l-12.9-34h-59.8l-12.3 34h-32l58-149.3h32l59.5 149.3zM424 774.8l-29.5-6.9c6.4-24.3 24.3-36.5 53.9-36.5 17.5 0 30.8 3.8 39.7 11.5 8.9 7.7 13.4 16.9 13.4 27.2 0 7.2-2 13.5-6.1 19.4-4.1 5.7-10.2 10.7-18.3 15.1 9.8 3.4 17.2 8.2 22.3 14.5 4.9 6.2 7.4 13.9 7.4 23.1 0 13.1-4.8 23.8-14.5 31.8-9.6 8.1-24 12.2-43.1 12.2-15.7 0-27.9-2.7-37-7.8-9-5.2-15.8-15-20.3-29.3l27.5-9c2.8 9 6.6 14.9 11.4 17.5 4.8 2.7 10.6 4 17.5 4 9.6 0 16.5-2 20.8-6.2 4.4-4.1 6.5-8.9 6.5-14.2 0-6.1-2.5-11.1-7.4-14.9-4.9-3.7-12.3-5.6-22.3-5.6H439v-22.6h3.4c9.2 0 16.3-2.1 21.1-6.2 4.9-4.1 7.3-9.7 7.3-16.5 0-5.4-2-10.1-6-13.8-4-3.7-9.7-5.6-17-5.6-12.3 0-20.3 6.2-23.8 18.8M612.5 824.2 591.9 769l-20.2 55.2h40.8zm55.4 59.2h-32.6l-12.9-34h-59.8l-12.3 34h-32l58-149.3h32l59.6 149.3zM684.3 734.1h30.3v63.6c6.8-.7 11.3-2.4 13.7-5.2s6.1-10.5 11-23.2c6.2-16.2 12.5-26.3 18.8-30.1 6.2-4 16.3-6 30.1-6 .7 0 2.1 0 4.4-.1v22.3l-4.2-.1c-6.2 0-10.7.8-13.5 2.3-2.8 1.6-5.2 3.8-6.9 7-1.7 3.2-4.4 9.6-7.8 19.2-1.9 5.2-3.8 9.4-6 13-2.1 3.4-6 6.8-11.3 9.8 6.8 1.9 12.2 5.7 16.6 11.5 4.4 5.7 9.2 13.9 14.3 24.4l20.3 40.9h-35.4l-17.9-38.5c-.3-.5-.9-1.6-1.7-3.2-.4-.5-1.6-2.9-3.7-7-3.8-7.3-6.9-11.9-9.4-13.8-2.5-1.9-6.2-2.8-11.3-2.8v65.3h-30.3V734.1h-.1zM849.9 883.4V759.3h-44.2v-25.2h118.4v25.2h-43.9v124.1zM943.6 883.4V734.1h110.5v25.2h-80.3v33.2h74.7v25.3h-74.7v40.4h83.2v25.2zM1093.4 734.1H1198v149.3h-30.3V759.3h-44.8v63.8c0 18.3-.7 31-1.9 38.2-1.2 7.2-4.1 12.9-8.9 16.9s-12.1 6.1-22.2 6.1c-3.6 0-10-.4-19.2-1.1v-23.4l6.8.1c6.2 0 10.6-.8 12.7-2.5s3.3-5.8 3.3-12.5l-.1-25.6v-85.2zM1229 883.4V734.1h110.5v25.2h-80.2v33.2h74.5v25.3h-74.5v40.4h83.1v25.2zM1368.4 734.1h30.3v63.6c6.8-.7 11.3-2.4 13.7-5.2s6.1-10.5 11-23.2c6.2-16.2 12.5-26.3 18.8-30.1 6.2-4 16.3-6 30.1-6 .7 0 2.1 0 4.4-.1v22.3l-4.2-.1c-6.2 0-10.7.8-13.5 2.3-2.8 1.6-5.2 3.8-6.9 7-1.7 3.2-4.4 9.6-7.8 19.2-1.9 5.2-3.8 9.4-6 13-2.1 3.4-6 6.8-11.3 9.8 6.8 1.9 12.2 5.7 16.6 11.5 4.4 5.7 9.2 13.9 14.3 24.4l20.3 40.9h-35.4l-17.9-38.5c-.3-.5-.9-1.6-1.7-3.2-.4-.5-1.6-2.9-3.7-7-3.8-7.3-6.9-11.9-9.4-13.8s-6.2-2.8-11.3-2.8v65.3h-30.3l-.1-149.3zM1520.1 808.7c0 16.9 4 29.7 11.7 38.5 7.8 8.8 17.8 13.1 29.7 13.1 12.1 0 21.9-4.4 29.7-13 7.7-8.8 11.5-21.6 11.5-39 0-17.1-3.7-29.9-11.3-38.3-7.6-8.5-17.5-12.6-30-12.6s-22.4 4.2-30.1 12.7c-7.3 8.4-11.2 21.4-11.2 38.6m-31 1c0-15.3 2.3-28 6.9-38.3 3.3-7.6 8-14.5 13.9-20.6 6-6.1 12.3-10.5 19.2-13.5 9.3-4 20-6 32.2-6 22 0 39.7 6.9 52.8 20.6s19.8 32.6 19.8 57.1c0 24.1-6.5 43.1-19.6 56.7-13.1 13.7-30.7 20.4-52.5 20.4-22.2 0-39.9-6.8-52.9-20.3-13.3-13.6-19.8-32.3-19.8-56.1zM1657 883.4V734.1h45.3l26.8 101.9 26.4-101.9h45.4v149.3h-28V765.9l-29.5 117.5h-29L1685 765.9l-.1 117.5z"/></svg>