<?xml version="1.0" encoding="UTF-8"?>
<!DOCTYPE svg PUBLIC "-//W3C//DTD SVG 1.1//EN" "http://www.w3.org/Graphics/SVG/1.1/DTD/svg11.dtd">
<!-- Creator: CorelDRAW 2021 (64-Bit) -->
<svg xmlns="http://www.w3.org/2000/svg" xml:space="preserve" width="40mm" height="40mm" version="1.1" style="shape-rendering:geometricPrecision; text-rendering:geometricPrecision; image-rendering:optimizeQuality; fill-rule:evenodd; clip-rule:evenodd"
viewBox="0 0 3986.84 3986.84"
 xmlns:xlink="http://www.w3.org/1999/xlink"
 xmlns:xodm="http://www.corel.com/coreldraw/odm/2003">
 <defs>
  <style type="text/css">
   <![CDATA[
    .fil0 {fill:#999999}
    .fil1 {fill:white}
   ]]>
  </style>
 </defs>
 <g id="Слой_x0020_1">
  <metadata id="CorelCorpID_0Corel-Layer"/>
  <circle class="fil0" cx="1993.42" cy="1993.42" r="1993.42"/>
  <path class="fil1" d="M715.77 2402.91c0,123.6 137.73,177.04 225.94,91.19 251.16,-244.36 518.57,-518.79 768.48,-768.7 47.8,-47.79 91.94,-91.94 139.74,-139.74l143.49 -140.99c25.21,16.88 895.42,892.91 979.46,976.96 38.86,38.87 98.92,116.04 168.44,116.04 61.16,0 121.59,-49.49 129.76,-114.28l0 -29.86c-3.78,-30.38 -19.32,-62.77 -51.11,-94.2l-559.02 -558.95c-16.84,-16.89 -23.97,-22.41 -42.21,-37.65 -45.77,-38.26 -443.11,-442.22 -519.27,-518.83 -123.75,-124.5 -201.4,-10.71 -289.46,77.35l-481.62 476.63c-107.69,107.69 -211.73,211.72 -319.42,319.42 -54.45,54.46 -105.25,105.25 -159.71,159.7 -27.83,27.84 -51.87,52.16 -79.87,79.84 -31.02,30.65 -53.63,57.23 -53.63,106.08z"/>
 </g>
</svg>
