<?xml version="1.0" encoding="UTF-8"?>
<!DOCTYPE svg PUBLIC "-//W3C//DTD SVG 1.1//EN" "http://www.w3.org/Graphics/SVG/1.1/DTD/svg11.dtd">
<!-- Creator: CorelDRAW 2021 (64-Bit) -->
<svg xmlns="http://www.w3.org/2000/svg" xml:space="preserve" width="24.9918mm" height="24.9918mm" version="1.1" style="shape-rendering:geometricPrecision; text-rendering:geometricPrecision; image-rendering:optimizeQuality; fill-rule:evenodd; clip-rule:evenodd"
viewBox="0 0 2486.05 2486.05"
 xmlns:xlink="http://www.w3.org/1999/xlink"
 xmlns:xodm="http://www.corel.com/coreldraw/odm/2003">
 <g id="Слой_x0020_1">
  <metadata id="CorelCorpID_0Corel-Layer"/>
  <path class="fil0" d="M1941.16 2340.1l-306.49 0c0,-108.3 10.99,-511.98 -15.1,-593.05 -11.22,-34.9 -29.81,-72.27 -54.13,-96.68 -27.36,-27.47 -45.66,-46.17 -81.43,-64.52 -85.12,-43.67 -241.92,-29.04 -355.3,-29.04 -43.68,0 -84.18,11.31 -115.26,25.83 -101.17,47.23 -157.19,146.14 -157.19,275.8l0 481.65 -306.49 0c-157.47,0 -136.22,-145.15 -136.22,-238.39l0 -559.48c0,-210.46 23.8,-220.03 -160.67,-218.8 -34.48,0.23 -53.76,-3.62 -73.84,-18.59 -15.27,-11.39 -33.08,-39.43 -33.08,-64.24 0,-46.11 78.96,-110.58 120.41,-152.03l890.31 -890.31c96.21,-96.21 111.37,-66.2 216.5,38.91l926.79 926.79c20.79,20.72 41.36,37.39 43.81,72.71 2.17,31.19 -18.58,61.44 -40.78,73.85 -92.59,51.79 -226.33,-60.54 -225.62,119.8 0.43,108.14 5.01,774.71 -2.57,809.89 -13.06,60.55 -61.63,99.89 -133.64,99.89zm-739.48 -2340.1l42.29 0c107.95,0.44 109.73,8.51 224.08,122.84l897.6 897.61c117.88,117.87 120.41,108.42 120.41,263.93 0,65.27 -75.66,150.4 -151.31,174.65 -97.27,31.18 -112.93,-22.57 -111.69,48.86l0.29 588.96c0,62.99 6.65,147.1 -11.49,202.57 -34.1,104.24 -131.48,186.63 -241.49,186.63l-413.54 0c-35.13,0 -61.93,-22.69 -70.22,-51.41 -8.77,-30.42 -2.66,-526.02 -2.58,-595.82 0.04,-41.36 -10.09,-69.34 -30.4,-91.23 -17.13,-18.45 -42.99,-39.95 -76.8,-39.95l-262.71 0c-59.14,0 -107.58,56.76 -107.15,136.1l0.12 476.89c0,52.11 20.03,165.42 -72.97,165.42l-413.54 0c-110.02,0 -215.81,-89.16 -244.36,-193.5 -18.31,-66.91 -8.62,-515.52 -8.62,-648.16 0,-180.58 17.78,-176.58 -43.73,-175.19 -69.23,1.54 -120.01,-29.66 -154.57,-64.36 -61.55,-61.78 -69.27,-101.48 -69.27,-183.71 0,-88.46 69.43,-144.84 115.55,-190.95l907.33 -907.34c39.44,-39.44 107.77,-122.84 178.8,-122.84z"/>
 </g>
</svg>
